<svg width="684" height="652" viewBox="0 0 684 652" fill="none" xmlns="http://www.w3.org/2000/svg">
<ellipse cx="342" cy="326" rx="342" ry="326" fill="#D9D9D9"/>
<path d="M552.431 245.145C551.08 237.621 545.589 230.183 539.423 221.966C535.96 217.383 533.342 214.874 529.878 212.712C538.072 195.501 537.987 174.658 527.767 157.014L515.773 136.344C506.312 120.084 490.264 109.965 472.948 107.198C471.174 103.565 469.232 100.192 468.133 98.6354C466.782 96.5597 461.292 90.4191 457.829 87.738C454.365 84.9704 446.172 79.5217 442.118 77.5325C437.979 75.4568 426.407 71.3919 420.241 70.7C415.511 70.1811 409.936 69.6622 404.192 69.7486C385.779 48.1268 353.766 41.8997 328.257 56.5161C327.581 56.862 326.905 57.2945 326.314 57.7269C324.54 57.208 322.936 56.6891 321.669 56.4296C316.178 55.0458 297.68 53.662 290.838 54.3539C283.996 55.0458 279.182 55.7377 271.664 58.4188C264.147 61.0999 254.518 65.2513 249.027 68.6243C243.537 71.9973 235.344 80.2136 233.992 81.5974C232.641 82.9812 226.475 93.8786 225.123 95.8678C223.772 97.9435 220.309 106.073 218.957 110.83C217.606 115.587 217.606 123.803 217.606 126.484C217.606 128.387 218.619 134.528 221.66 140.755H212.791C208.906 140.755 205.189 141.447 201.726 142.571C201.642 142.312 201.726 142.139 201.811 142.139C201.811 142.139 179.934 145.512 174.443 147.587C168.953 149.663 157.297 153.728 149.779 160.56C142.262 167.393 131.957 174.225 126.467 190.572C120.976 206.918 123.764 218.507 126.467 228.712C129.169 238.918 137.447 252.583 153.158 263.48C157.973 266.853 164.139 269.621 170.389 271.783C166.673 275.416 163.801 279.826 161.942 284.756C160.338 286.832 156.452 292.54 153.834 303.611C150.371 317.881 153.834 330.162 164.139 347.2C174.359 364.325 208.568 374.617 208.568 374.617V375.309V433.947H231.881H236.695H480.212V371.936L500.991 371.244V313.989C500.991 313.989 520.165 307.848 526.331 303.783C532.497 299.719 535.96 295.567 540.69 290.81C545.505 286.054 548.208 281.297 550.995 273.772C553.782 266.248 553.782 252.583 552.431 245.145Z" fill="black"/>
<path d="M524.135 248.864C522.952 242.204 518.222 235.631 512.985 228.366C507.664 221.102 504.707 219.891 495.923 215.134C487.138 210.377 474.131 209.08 474.131 209.08C474.131 209.08 471.174 214.528 469.992 217.556C468.809 220.583 468.218 221.188 466.444 224.215C464.67 227.242 454.703 239.264 454.703 239.264L447.017 235.631C447.017 235.631 450.564 230.183 451.156 228.972C451.747 227.761 456.477 216.345 457.068 214.528C457.66 212.712 460.025 204.842 460.025 201.901C460.025 198.874 460.025 194.031 460.025 192.215C460.025 190.399 457.068 181.923 456.477 180.798C455.886 179.674 452.338 174.139 450.564 172.323C448.791 170.506 441.104 163.847 439.415 162.636C437.641 161.425 428.265 156.582 425.309 155.371C422.353 154.16 405.29 149.922 405.29 149.922L411.203 143.263C411.203 143.263 417.116 144.474 420.072 145.079C423.028 145.685 435.36 149.317 438.908 150.528C442.456 151.739 455.97 159.004 455.97 159.004C455.97 159.004 459.518 146.376 459.518 143.349C459.518 140.322 458.927 133.663 457.153 129.511C455.379 125.274 453.014 121.036 451.831 119.219C450.649 117.403 445.919 111.954 442.962 109.533C440.006 107.111 432.911 102.268 429.448 100.452C425.9 98.6354 415.933 95.0029 410.612 94.3975C405.29 93.7921 398.871 93.1867 392.367 93.7921C385.863 94.3975 377.67 96.2138 370.575 98.6354C363.479 101.057 347.6 113.079 347.6 113.079L337.548 101.057L349.88 91.9759C349.88 91.9759 345.15 88.9488 342.785 87.738C340.42 86.5272 330.453 82.8947 325.723 81.6839C320.993 80.473 305.113 79.2622 299.2 79.8676C293.288 80.473 289.149 81.0785 282.73 83.5001C276.226 85.9218 268.032 89.5542 263.302 92.5813C258.572 95.6083 251.561 102.873 250.379 103.998C249.196 105.122 243.875 114.809 242.692 116.625C241.51 118.441 238.554 125.706 237.371 129.857C236.188 134.095 236.188 141.274 236.188 143.695C236.188 146.117 237.962 156.322 244.466 163.587C250.97 170.852 268.624 174.398 276.817 175.004C285.095 175.609 317.445 174.398 317.445 174.398C317.445 174.398 315.08 178.636 313.306 184.69C311.533 190.744 311.533 196.107 312.715 202.766C313.898 209.426 319.81 219.631 323.865 224.475C328.004 229.318 342.701 237.102 353.935 239.523C365.169 241.945 382.231 243.761 382.231 243.761C382.231 243.761 378.683 256.388 381.049 268.497C383.414 280.605 393.972 287.783 393.972 287.783C393.972 287.783 403.432 284.756 408.078 283.545C412.808 282.335 414.582 282.335 422.775 281.729C431.053 281.124 443.385 282.94 443.385 282.94L446.341 289.6C446.341 289.6 432.826 288.994 426.323 290.205C419.819 291.416 409.852 293.837 403.348 298.075C396.844 302.313 394.479 303.524 389.242 313.124C384.005 322.724 381.555 338.465 381.555 338.465H368.041C368.041 338.465 366.858 336.043 367.449 328.173C368.041 320.303 369.223 317.881 373.362 308.281C377.501 298.681 386.285 292.627 386.285 292.627C386.285 292.627 378.599 285.967 376.825 284.151C375.051 282.335 373.869 281.124 367.956 272.735C362.044 264.259 363.226 251.632 363.226 251.632C363.226 251.632 356.131 251.632 352.076 251.026C347.938 250.421 342.616 248.605 337.379 247.394C332.058 246.183 313.222 237.102 309.083 234.161C304.944 231.134 296.751 224.475 292.612 211.847C288.473 199.22 290.838 191.955 290.838 191.955C273.185 189.707 256.207 187.285 240.412 178.204C235.259 175.263 229.938 172.063 226.475 166.96C226.221 166.528 221.745 157.706 222.505 157.62C222.505 157.62 203.669 160.647 198.939 162.463C194.209 164.279 184.242 167.912 177.738 173.879C171.234 179.934 162.449 185.901 157.719 200.431C152.989 214.961 155.354 225.166 157.719 234.161C160.084 243.242 167.179 255.264 180.694 264.951C194.209 274.637 220.14 278.789 220.14 278.789C220.14 278.789 218.957 270.313 219.549 261.318C220.14 252.237 222.505 248.691 222.505 248.691L233.063 251.718C233.063 251.718 230.698 261.405 230.698 264.951C230.698 268.497 228.333 278.183 242.439 296.864C256.545 315.546 300.13 327.049 300.13 327.049L299.538 336.13C299.538 336.13 287.798 333.708 280.111 331.892C272.425 330.076 260.684 325.232 244.804 316.238C228.924 307.243 223.012 288.475 223.012 288.475C223.012 288.475 207.723 287.264 204.176 286.659C200.628 286.054 189.141 283.286 189.141 283.286C189.141 283.286 184.411 288.129 181.454 300.756C178.498 313.384 181.454 324.281 190.323 339.33C199.192 354.379 228.586 363.46 228.586 363.46V364.065V415.958H252.744V386.379L282.223 387.59C282.223 387.59 340.505 384.563 341.687 385.773C342.87 386.984 368.801 393.038 379.359 391.828C389.917 390.617 401.152 388.195 410.021 381.017C418.889 373.752 428.857 361.125 428.857 361.125L440.597 365.968L432.911 376.779L432.32 403.936L461.207 404.541L461.798 361.125L480.043 360.519V309.751C480.043 309.751 496.514 304.302 501.836 300.67C507.157 297.037 510.113 293.405 514.168 289.254C518.222 285.102 520.672 280.778 523.037 274.205C525.317 267.545 525.317 255.524 524.135 248.864Z" fill="#FBB03B"/>
<path d="M480.634 198.269L495.332 200.691C495.332 200.691 498.879 187.458 496.514 177.771C494.149 168.085 489.419 162.723 487.054 159.09C484.689 155.458 476.496 148.798 476.496 148.798L468.218 165.663C468.218 166.269 476.496 173.533 478.776 181.317C481.226 189.188 480.634 198.269 480.634 198.269Z" fill="#FBB03B"/>
<path d="M496.514 177.771C494.149 168.085 489.419 162.723 487.054 159.09C484.689 155.458 476.496 148.798 476.496 148.798L474.131 153.641C476.749 155.89 480.381 159.263 481.817 161.425C484.182 165.058 488.912 170.506 491.277 180.107C492.882 186.853 491.7 195.328 490.77 199.826L495.332 200.604C495.332 200.604 498.879 187.371 496.514 177.771Z" fill="#E8993A"/>
<path d="M496.514 177.771C494.149 168.085 489.419 162.723 487.054 159.09C484.689 155.458 476.496 148.798 476.496 148.798L475.567 150.701C477.763 152.517 483.422 157.36 485.365 160.301C487.73 163.933 492.46 169.382 494.825 178.982C496.683 186.68 494.825 196.799 493.98 200.431L495.416 200.691C495.332 200.604 498.879 187.371 496.514 177.771Z" fill="#FFDF85"/>
<path d="M202.148 163.847C201.304 164.02 206.118 174.312 206.456 174.744C210.173 180.712 215.917 184.344 221.576 187.89C238.722 198.528 257.052 201.382 276.141 203.977C276.141 203.977 273.607 212.453 278.084 227.242C282.561 242.031 291.514 249.815 295.906 253.275C300.383 256.821 320.739 267.372 326.483 268.756C332.227 270.14 337.971 272.302 342.447 272.994C346.924 273.686 354.526 273.686 354.526 273.686C354.526 273.686 353.259 288.475 359.594 298.335C366.013 308.194 367.28 309.578 369.139 311.74C369.561 312.173 370.237 312.865 371.081 313.73C371.673 312.259 372.433 310.529 373.278 308.54C377.416 298.854 386.201 292.886 386.201 292.886C386.201 292.886 378.515 286.227 376.741 284.41C374.967 282.594 373.784 281.383 367.872 272.994C361.959 264.518 363.142 251.891 363.142 251.891C363.142 251.891 356.046 251.891 351.992 251.286C347.853 250.68 342.532 248.864 337.295 247.653C331.973 246.442 313.137 237.361 308.999 234.421C304.86 231.393 296.666 224.734 292.528 212.107C288.389 199.48 290.754 192.215 290.754 192.215C273.1 189.966 256.123 187.544 240.327 178.463C235.175 175.523 229.853 172.323 226.39 167.22C226.137 166.787 221.66 157.966 222.42 157.879C222.42 157.879 203.584 160.906 198.854 162.723C196.912 163.501 193.955 164.539 190.746 166.009C196.827 164.798 202.148 163.847 202.148 163.847Z" fill="#E8993A"/>
<path d="M251.561 106.592C256.292 103.565 264.485 99.9328 270.989 97.5111C277.493 95.0895 281.547 94.4841 287.46 93.8787C293.372 93.2732 309.252 94.4841 313.982 95.6949C318.712 96.9057 328.679 100.538 331.044 101.749C333.409 102.96 338.14 105.987 338.14 105.987L325.807 115.068L335.859 127.09C335.859 127.09 351.739 115.068 358.834 112.646C365.929 110.225 374.122 108.409 380.626 107.803C387.13 107.198 393.55 107.803 398.871 108.409C404.192 109.014 414.159 112.646 417.707 114.463C421.255 116.279 428.265 121.122 431.222 123.544C434.178 125.965 438.908 131.414 440.091 133.23C441.273 135.047 443.638 139.285 445.412 143.522C446.763 146.722 447.439 151.22 447.608 154.506C452.085 156.755 456.562 159.177 456.562 159.177C456.562 159.177 460.109 146.549 460.109 143.522C460.109 140.495 459.518 133.836 457.744 129.684C455.97 125.447 453.605 121.209 452.423 119.392C451.24 117.576 446.51 112.127 443.554 109.706C440.597 107.284 433.502 102.441 430.039 100.625C426.491 98.8084 416.524 95.176 411.203 94.5705C405.882 93.9651 399.462 93.3597 392.958 93.9651C386.454 94.5705 378.261 96.3868 371.166 98.8084C364.071 101.23 348.191 113.252 348.191 113.252L338.14 101.23L350.472 92.1489C350.472 92.1489 345.742 89.1218 343.376 87.911C341.011 86.7002 331.044 83.0677 326.314 81.8569C321.584 80.6461 305.704 79.4353 299.792 80.0407C293.879 80.6461 289.74 81.2515 283.321 83.6731C276.817 86.0948 268.624 89.7273 263.893 92.7543C259.163 95.7814 252.153 103.046 250.97 104.171C250.463 104.69 249.027 107.111 247.507 109.619C248.858 108.495 250.294 107.371 251.561 106.592Z" fill="#E8993A"/>
<path d="M261.528 95.0894C266.259 92.0624 274.452 88.4299 280.956 86.0083C287.46 83.5866 291.514 82.9812 297.427 82.3758C303.339 81.7704 319.219 82.9812 323.949 84.192C328.679 85.4029 338.646 89.0353 341.011 90.2461C342.87 91.1975 346.333 93.3597 347.6 94.1381L350.472 92.0624C350.472 92.0624 345.742 89.0353 343.376 87.8245C341.011 86.6137 331.044 82.9812 326.314 81.7704C321.584 80.5596 305.704 79.4352 299.792 80.0406C293.879 80.646 289.74 81.2515 283.321 83.6731C276.817 86.0947 268.624 89.7272 263.893 92.7543C259.163 95.7813 252.153 103.046 250.97 104.171C250.886 104.257 250.801 104.344 250.717 104.43C253.42 101.749 258.15 97.3381 261.528 95.0894Z" fill="#FFDF85"/>
<path d="M457.66 129.511C455.886 125.274 453.521 121.036 452.338 119.219C451.156 117.403 446.426 111.955 443.469 109.533C440.513 107.111 433.418 102.268 429.955 100.452C426.407 98.6354 416.44 95.003 411.119 94.3976C405.797 93.7922 399.378 93.1867 392.874 93.7922C386.37 94.3976 378.177 96.2138 371.081 98.6354C363.986 101.057 348.107 113.079 348.107 113.079L338.477 101.49L335.774 103.479L337.379 105.381C337.802 105.641 338.14 105.814 338.14 105.814L337.886 105.987L345.742 115.5C345.742 115.5 361.621 103.479 368.716 101.057C375.812 98.6354 384.005 96.8192 390.509 96.2138C397.013 95.6084 403.432 96.2138 408.754 96.8192C414.075 97.4246 424.042 101.057 427.59 102.873C431.137 104.69 438.148 109.533 441.104 111.955C444.06 114.376 448.791 119.825 449.973 121.641C451.156 123.457 453.521 127.695 455.295 131.933C457.068 136.171 457.66 142.744 457.66 145.771C457.66 147.847 456.055 154.247 454.957 158.225C455.886 158.744 456.477 159.004 456.477 159.004C456.477 159.004 460.025 146.376 460.025 143.349C460.025 140.322 459.433 133.749 457.66 129.511Z" fill="#FFDF85"/>
<path d="M524.135 248.864C522.952 242.204 518.222 235.631 512.985 228.366C507.664 221.102 504.707 219.891 495.923 215.134C490.939 212.366 484.604 210.81 480.043 209.945C478.861 209.685 474.131 209.08 474.131 209.08L472.779 211.588C471.85 213.404 470.667 215.826 469.992 217.469C468.894 220.323 468.302 221.015 466.782 223.61C471.343 224.388 478.185 226.031 483.591 228.885C492.46 233.729 495.332 234.939 500.653 242.118C505.974 249.296 510.705 255.956 511.803 262.615C512.985 269.275 512.985 281.297 510.62 287.956C509.353 291.502 508.086 294.27 506.65 296.778C509.269 294.356 511.465 291.848 514.168 289.167C518.307 284.929 520.672 280.691 523.037 274.118C525.317 267.545 525.317 255.524 524.135 248.864Z" fill="#E8993A"/>
<path d="M524.135 248.864C522.952 242.204 518.222 235.631 512.985 228.366C507.664 221.102 504.707 219.891 495.923 215.134C490.939 212.366 484.604 210.81 480.043 209.945C478.861 209.685 474.131 209.08 474.131 209.08L472.779 211.588C474.215 211.761 476.834 212.107 477.678 212.366C482.239 213.231 488.574 214.788 493.558 217.556C502.427 222.399 505.299 223.61 510.62 230.788C515.941 238.053 520.672 244.626 521.77 251.286C522.952 257.945 522.952 269.967 520.587 276.626C518.222 283.286 515.857 287.437 511.718 291.675C510.536 292.886 509.438 294.01 508.424 295.135C510.282 293.232 512.056 291.329 514.083 289.254C518.222 285.016 520.587 280.778 522.952 274.205C525.317 267.545 525.317 255.524 524.135 248.864Z" fill="#FFDF85"/>
<g clip-path="url(#clip0_175_2)">
<path d="M157.138 485.005H141V472H186.039V485.005H169.901V541.107H157.138V485.005Z" fill="black"/>
<path d="M204.709 527.888H217.578V488.444H230.446V541H191.841V488.444H204.709V527.888Z" fill="black"/>
<path d="M240.15 472H253.018V488.444H263.988V501.556H253.124V541H240.15V472Z" fill="black"/>
<path d="M310.926 488.444V541H272.216V488.444H310.926ZM285.084 501.556V527.888H297.952V501.556H285.084Z" fill="black"/>
<path d="M333.499 541H320.63V488.444H359.341V508.65H346.473V501.556H333.604V541H333.499Z" fill="black"/>
<path d="M398.79 522.299L381.808 495.322V541H369.045V472H381.07L398.79 499.192L416.511 472H428.535V541H415.772V495.322L398.79 522.299Z" fill="black"/>
<path d="M436.868 488.444H456.276V541H443.408V501.556H436.868V488.444ZM456.276 482.963H443.408V472H456.276V482.963Z" fill="black"/>
<path d="M478.848 541H465.98V488.444H504.691V541H491.822V501.556H478.954V541H478.848Z" fill="black"/>
<path d="M553 541H514.289V488.444H540.132V472H553V541ZM527.263 501.556V527.888H540.132V501.556H527.263Z" fill="black"/>
</g>
<defs>
<clipPath id="clip0_175_2">
<rect width="412" height="69" fill="white" transform="translate(141 472)"/>
</clipPath>
</defs>
</svg>
