<svg width="110" height="103" viewBox="0 0 110 103" fill="none" xmlns="http://www.w3.org/2000/svg">
<ellipse cx="55" cy="51.5" rx="55" ry="51.5" fill="#D9D9D9"/>
<path d="M88.8413 38.7269C88.624 37.5382 87.741 36.3632 86.7494 35.0652C86.1925 34.3411 85.7714 33.9449 85.2144 33.6033C86.5321 30.8844 86.5185 27.5916 84.8748 24.8044L82.9459 21.539C81.4245 18.9704 78.8436 17.3718 76.059 16.9346C75.7737 16.3607 75.4613 15.8279 75.2847 15.582C75.0673 15.2541 74.1844 14.284 73.6275 13.8604C73.0705 13.4232 71.7529 12.5625 71.1009 12.2482C70.4353 11.9203 68.5743 11.2782 67.5827 11.1689C66.822 11.0869 65.9254 11.0049 65.0017 11.0186C62.0405 7.60284 56.8922 6.61911 52.7899 8.92814C52.6812 8.98279 52.5726 9.0511 52.4775 9.11942C52.1922 9.03744 51.9341 8.95546 51.7304 8.91448C50.8474 8.69587 47.8726 8.47726 46.7723 8.58657C45.672 8.69587 44.8977 8.80517 43.6888 9.22872C42.4798 9.65227 40.9313 10.3081 40.0483 10.8409C39.1654 11.3738 37.8477 12.6718 37.6304 12.8904C37.4131 13.109 36.4214 14.8305 36.2041 15.1448C35.9868 15.4727 35.4298 16.757 35.2125 17.5084C34.9951 18.2599 34.9951 19.5579 34.9951 19.9814C34.9951 20.282 35.1582 21.2521 35.6472 22.2358H34.2209C33.596 22.2358 32.9983 22.3451 32.4414 22.5227C32.4278 22.4817 32.4414 22.4544 32.455 22.4544C32.455 22.4544 28.9368 22.9872 28.0538 23.3152C27.1709 23.6431 25.2963 24.2852 24.0874 25.3646C22.8784 26.444 21.2212 27.5233 20.3382 30.1056C19.4553 32.6879 19.9036 34.5187 20.3382 36.1309C20.7729 37.7432 22.1041 39.9019 24.6307 41.6234C25.405 42.1563 26.3966 42.5935 27.4018 42.9351C26.8041 43.5089 26.3423 44.2057 26.0434 44.9845C25.7853 45.3124 25.1605 46.2141 24.7394 47.963C24.1825 50.2174 24.7394 52.1575 26.3966 54.8491C28.0402 57.5543 33.5417 59.1802 33.5417 59.1802V59.2895V68.553H37.2908H38.0651H77.2272V58.7567L80.5688 58.6474V49.6025C80.5688 49.6025 83.6523 48.6325 84.6439 47.9903C85.6355 47.3482 86.1925 46.6924 86.9532 45.9409C87.7274 45.1894 88.1621 44.438 88.6104 43.2493C89.0586 42.0606 89.0586 39.9019 88.8413 38.7269Z" fill="black"/>
<path d="M84.2905 39.3143C84.1003 38.2622 83.3396 37.2238 82.4974 36.0762C81.6416 34.9285 81.1662 34.7372 79.7535 33.9857C78.3408 33.2343 76.2489 33.0293 76.2489 33.0293C76.2489 33.0293 75.7734 33.8901 75.5833 34.3683C75.3931 34.8465 75.298 34.9421 75.0128 35.4203C74.7275 35.8985 73.1246 37.7977 73.1246 37.7977L71.8885 37.2238C71.8885 37.2238 72.459 36.3631 72.5541 36.1718C72.6492 35.9805 73.4099 34.177 73.505 33.8901C73.6 33.6032 73.9804 32.3599 73.9804 31.8953C73.9804 31.4171 73.9804 30.652 73.9804 30.3651C73.9804 30.0782 73.505 28.7392 73.4099 28.5616C73.3148 28.384 72.7443 27.5095 72.459 27.2226C72.1737 26.9357 70.9376 25.8837 70.6659 25.6924C70.3807 25.5011 68.8729 24.736 68.3974 24.5447C67.922 24.3534 65.1781 23.6839 65.1781 23.6839L66.129 22.6319C66.129 22.6319 67.0798 22.8232 67.5553 22.9188C68.0307 23.0144 70.0139 23.5883 70.5844 23.7796C71.155 23.9708 73.3284 25.1185 73.3284 25.1185C73.3284 25.1185 73.8989 23.1237 73.8989 22.6455C73.8989 22.1673 73.8038 21.1153 73.5185 20.4595C73.2333 19.79 72.8529 19.1205 72.6628 18.8336C72.4726 18.5467 71.7119 17.6859 71.2365 17.3034C70.761 16.9208 69.62 16.1557 69.0631 15.8688C68.4925 15.5818 66.8896 15.008 66.0339 14.9124C65.1781 14.8167 64.1457 14.7211 63.0998 14.8167C62.0538 14.9124 60.7362 15.1993 59.5951 15.5818C58.4541 15.9644 55.9004 17.8635 55.9004 17.8635L54.2839 15.9644L56.2671 14.5298C56.2671 14.5298 55.5064 14.0516 55.1261 13.8603C54.7457 13.669 53.1428 13.0952 52.3822 12.9039C51.6215 12.7126 49.0677 12.5214 48.1168 12.617C47.166 12.7126 46.5004 12.8083 45.468 13.1908C44.4221 13.5734 43.1044 14.1472 42.3437 14.6254C41.583 15.1036 40.4556 16.2513 40.2654 16.4289C40.0752 16.6066 39.2195 18.1368 39.0293 18.4237C38.8391 18.7106 38.3637 19.8583 38.1735 20.5141C37.9833 21.1836 37.9833 22.3176 37.9833 22.7002C37.9833 23.0828 38.2686 24.695 39.3145 25.8427C40.3605 26.9903 43.1995 27.5505 44.5171 27.6462C45.8484 27.7418 51.0509 27.5505 51.0509 27.5505C51.0509 27.5505 50.6706 28.22 50.3853 29.1764C50.1001 30.1328 50.1001 30.9799 50.2903 32.0319C50.4804 33.084 51.4313 34.6962 52.0833 35.4613C52.7489 36.2265 55.1125 37.4561 56.9191 37.8387C58.7258 38.2212 61.4697 38.5082 61.4697 38.5082C61.4697 38.5082 60.8992 40.5029 61.2795 42.4157C61.6599 44.3285 63.3579 45.4626 63.3579 45.4626C63.3579 45.4626 64.8792 44.9844 65.6264 44.7931C66.387 44.6018 66.6723 44.6018 67.9899 44.5062C69.3211 44.4105 71.3044 44.6974 71.3044 44.6974L71.7798 45.7495C71.7798 45.7495 69.6064 45.6538 68.5605 45.8451C67.5145 46.0364 65.9116 46.419 64.8657 47.0884C63.8197 47.7579 63.4394 47.9492 62.5972 49.4658C61.755 50.9824 61.361 53.469 61.361 53.469H59.1876C59.1876 53.469 58.9975 53.0864 59.0925 51.8431C59.1876 50.5998 59.3778 50.2172 60.0434 48.7007C60.709 47.1841 62.1217 46.2277 62.1217 46.2277C62.1217 46.2277 60.8856 45.1756 60.6004 44.8887C60.3151 44.6018 60.1249 44.4105 59.1741 43.0852C58.2232 41.7463 58.4134 39.7515 58.4134 39.7515C58.4134 39.7515 57.2723 39.7515 56.6203 39.6558C55.9547 39.5602 55.0989 39.2733 54.2567 39.082C53.4009 38.8907 50.3718 37.4561 49.7061 36.9916C49.0405 36.5134 47.7229 35.4613 47.0573 33.4666C46.3917 31.4718 46.772 30.3241 46.772 30.3241C43.933 29.9689 41.2027 29.5863 38.6625 28.1517C37.8339 27.6872 36.9781 27.1816 36.4212 26.3755C36.3804 26.3072 35.6605 24.9136 35.7828 24.8999C35.7828 24.8999 32.7536 25.3781 31.9929 25.665C31.2322 25.952 29.6293 26.5258 28.5833 27.4685C27.5374 28.4249 26.1247 29.3677 25.364 31.6631C24.6033 33.9584 24.9836 35.5706 25.364 36.9916C25.7443 38.4262 26.8854 40.3253 29.0588 41.8556C31.2322 43.3858 35.4024 44.0416 35.4024 44.0416C35.4024 44.0416 35.2122 42.7027 35.3073 41.2817C35.4024 39.8471 35.7828 39.2869 35.7828 39.2869L37.4807 39.7651C37.4807 39.7651 37.1004 41.2954 37.1004 41.8556C37.1004 42.4157 36.72 43.946 38.9885 46.8972C41.257 49.8484 48.2663 51.6655 48.2663 51.6655L48.1712 53.1001C48.1712 53.1001 46.283 52.7176 45.0469 52.4306C43.8108 52.1437 41.9226 51.3786 39.3689 49.9576C36.8151 48.5367 35.8643 45.5719 35.8643 45.5719C35.8643 45.5719 33.4056 45.3806 32.8351 45.2849C32.2646 45.1893 30.4172 44.7521 30.4172 44.7521C30.4172 44.7521 29.6565 45.5172 29.181 47.512C28.7056 49.5068 29.181 51.2283 30.6073 53.6056C32.0336 55.983 36.7608 57.4176 36.7608 57.4176V57.5132V65.711H40.6458V61.0382L45.3865 61.2295C45.3865 61.2295 54.7593 60.7513 54.9495 60.9426C55.1397 61.1339 59.3099 62.0903 61.0079 61.899C62.7058 61.7077 64.5125 61.3252 65.9388 60.1912C67.3651 59.0435 68.968 57.0487 68.968 57.0487L70.8561 57.8138L69.62 59.5217L69.5249 63.8118L74.1706 63.9075L74.2656 57.0487L77.1997 56.953V48.9329C77.1997 48.9329 79.8486 48.0722 80.7044 47.4983C81.5601 46.9245 82.0356 46.3507 82.6876 45.6948C83.3396 45.039 83.7335 44.3559 84.1139 43.3175C84.4807 42.2654 84.4807 40.3663 84.2905 39.3143Z" fill="#FBB03B"/>
<path d="M77.2947 31.3215L79.6582 31.7041C79.6582 31.7041 80.2288 29.6137 79.8484 28.0834C79.4681 26.5532 78.7074 25.7061 78.327 25.1322C77.9467 24.5584 76.6291 23.5063 76.6291 23.5063L75.2979 26.1706C75.2979 26.2662 76.6291 27.4139 76.9958 28.6436C77.3898 29.8869 77.2947 31.3215 77.2947 31.3215Z" fill="#FBB03B"/>
<path d="M79.8487 28.0834C79.4684 26.5532 78.7077 25.7061 78.3273 25.1322C77.947 24.5584 76.6294 23.5063 76.6294 23.5063L76.249 24.2715C76.6701 24.6267 77.2542 25.1596 77.4851 25.5011C77.8655 26.075 78.6262 26.9357 79.0065 28.4523C79.2646 29.518 79.0745 30.857 78.925 31.5674L79.6586 31.6904C79.6586 31.6904 80.2291 29.6 79.8487 28.0834Z" fill="#E8993A"/>
<path d="M79.8488 28.0834C79.4684 26.5532 78.7077 25.7061 78.3274 25.1322C77.947 24.5584 76.6294 23.5063 76.6294 23.5063L76.48 23.8069C76.8332 24.0939 77.7433 24.859 78.0557 25.3235C78.436 25.8974 79.1967 26.7581 79.5771 28.2747C79.8759 29.4907 79.5771 31.0892 79.4412 31.6631L79.6722 31.7041C79.6586 31.6904 80.2291 29.6 79.8488 28.0834Z" fill="#FFDF85"/>
<path d="M32.5091 25.8837C32.3733 25.911 33.1475 27.5369 33.2019 27.6052C33.7996 28.5479 34.7233 29.1218 35.6334 29.6819C38.3909 31.3625 41.3386 31.8133 44.4085 32.2232C44.4085 32.2232 44.001 33.5622 44.7209 35.8986C45.4409 38.2349 46.8808 39.4646 47.5871 40.0111C48.3071 40.5713 51.5807 42.2381 52.5044 42.4567C53.4281 42.6753 54.3518 43.0169 55.0718 43.1262C55.7917 43.2355 57.0143 43.2355 57.0143 43.2355C57.0143 43.2355 56.8105 45.5719 57.8293 47.1294C58.8617 48.687 59.0654 48.9056 59.3643 49.2472C59.4322 49.3155 59.5408 49.4248 59.6767 49.5614C59.7718 49.3292 59.894 49.0559 60.0299 48.7417C60.6955 47.2114 62.1082 46.2687 62.1082 46.2687C62.1082 46.2687 60.8721 45.2166 60.5868 44.9297C60.3015 44.6428 60.1114 44.4515 59.1605 43.1262C58.2096 41.7873 58.3998 39.7925 58.3998 39.7925C58.3998 39.7925 57.2588 39.7925 56.6068 39.6968C55.9411 39.6012 55.0854 39.3143 54.2432 39.123C53.3874 38.9317 50.3582 37.4971 49.6926 37.0326C49.027 36.5544 47.7094 35.5023 47.0438 33.5075C46.3782 31.5128 46.7585 30.3651 46.7585 30.3651C43.9195 30.0098 41.1891 29.6273 38.649 28.1927C37.8204 27.7281 36.9646 27.2226 36.4077 26.4165C36.3669 26.3482 35.647 24.9546 35.7692 24.9409C35.7692 24.9409 32.74 25.4191 31.9793 25.706C31.6669 25.829 31.1915 25.993 30.6753 26.2252C31.6533 26.0339 32.5091 25.8837 32.5091 25.8837Z" fill="#E8993A"/>
<path d="M40.4557 16.8388C41.2164 16.3606 42.5341 15.7868 43.58 15.4042C44.626 15.0217 45.278 14.926 46.2288 14.8304C47.1797 14.7348 49.7335 14.926 50.4942 15.1173C51.2548 15.3086 52.8577 15.8824 53.2381 16.0737C53.6184 16.265 54.3791 16.7432 54.3791 16.7432L52.3959 18.1778L54.0124 20.0769C54.0124 20.0769 56.5661 18.1778 57.7071 17.7952C58.8482 17.4127 60.1658 17.1258 61.2118 17.0301C62.2577 16.9345 63.2901 17.0301 64.1459 17.1258C65.0016 17.2214 66.6045 17.7952 67.1751 18.0822C67.7456 18.3691 68.873 19.1342 69.3485 19.5168C69.8239 19.8993 70.5846 20.7601 70.7748 21.047C70.9649 21.3339 71.3453 22.0034 71.6305 22.6729C71.8479 23.1784 71.9565 23.8889 71.9837 24.4081C72.7037 24.7633 73.4236 25.1459 73.4236 25.1459C73.4236 25.1459 73.9941 23.1511 73.9941 22.6729C73.9941 22.1947 73.899 21.1427 73.6138 20.4868C73.3285 19.8174 72.9482 19.1479 72.758 18.8609C72.5678 18.574 71.8071 17.7133 71.3317 17.3307C70.8563 16.9481 69.7152 16.183 69.1583 15.8961C68.5878 15.6092 66.9849 15.0353 66.1291 14.9397C65.2733 14.8441 64.2409 14.7484 63.195 14.8441C62.149 14.9397 60.8314 15.2266 59.6904 15.6092C58.5493 15.9917 55.9956 17.8909 55.9956 17.8909L54.3791 15.9917L56.3624 14.5571C56.3624 14.5571 55.6017 14.0789 55.2213 13.8877C54.841 13.6964 53.2381 13.1225 52.4774 12.9313C51.7167 12.74 49.1629 12.5487 48.2121 12.6443C47.2612 12.74 46.5956 12.8356 45.5632 13.2182C44.5173 13.6007 43.1997 14.1746 42.439 14.6528C41.6783 15.131 40.5508 16.2787 40.3606 16.4563C40.2791 16.5383 40.0482 16.9208 39.8037 17.317C40.0211 17.1394 40.252 16.9618 40.4557 16.8388Z" fill="#E8993A"/>
<path d="M42.0586 15.0217C42.8192 14.5435 44.1369 13.9697 45.1828 13.5871C46.2288 13.2046 46.8808 13.1089 47.8317 13.0133C48.7825 12.9176 51.3363 13.1089 52.097 13.3002C52.8577 13.4915 54.4606 14.0653 54.8409 14.2566C55.1397 14.4069 55.6967 14.7485 55.9004 14.8714L56.3623 14.5435C56.3623 14.5435 55.6016 14.0653 55.2212 13.874C54.8409 13.6828 53.238 13.1089 52.4773 12.9176C51.7166 12.7264 49.1629 12.5487 48.212 12.6444C47.2611 12.74 46.5955 12.8357 45.5632 13.2182C44.5172 13.6008 43.1996 14.1746 42.4389 14.6528C41.6782 15.131 40.5507 16.2787 40.3606 16.4563C40.347 16.47 40.3334 16.4837 40.3198 16.4973C40.7545 16.0738 41.5152 15.377 42.0586 15.0217Z" fill="#FFDF85"/>
<path d="M73.5999 20.4597C73.3147 19.7902 72.9343 19.1208 72.7442 18.8338C72.554 18.5469 71.7933 17.6862 71.3179 17.3036C70.8424 16.921 69.7014 16.1559 69.1445 15.869C68.5739 15.5821 66.9711 15.0082 66.1153 14.9126C65.2595 14.817 64.2271 14.7213 63.1812 14.817C62.1352 14.9126 60.8176 15.1995 59.6766 15.5821C58.5355 15.9646 55.9818 17.8638 55.9818 17.8638L54.4332 16.033L53.9985 16.3472L54.2566 16.6478C54.3245 16.6888 54.3789 16.7161 54.3789 16.7161L54.3381 16.7434L55.6014 18.2463C55.6014 18.2463 58.1552 16.3472 59.2962 15.9646C60.4373 15.5821 61.7549 15.2952 62.8008 15.1995C63.8468 15.1039 64.8792 15.1995 65.7349 15.2952C66.5907 15.3908 68.1936 15.9646 68.7641 16.2516C69.3346 16.5385 70.4621 17.3036 70.9375 17.6862C71.413 18.0687 72.1736 18.9295 72.3638 19.2164C72.554 19.5033 72.9343 20.1728 73.2196 20.8423C73.5049 21.5118 73.5999 22.5502 73.5999 23.0284C73.5999 23.3563 73.3419 24.3673 73.1653 24.9958C73.3147 25.0778 73.4098 25.1188 73.4098 25.1188C73.4098 25.1188 73.9803 23.124 73.9803 22.6458C73.9803 22.1676 73.8852 21.1292 73.5999 20.4597Z" fill="#FFDF85"/>
<path d="M84.2903 39.3142C84.1001 38.2622 83.3394 37.2238 82.4972 36.0761C81.6414 34.9284 81.166 34.7372 79.7533 33.9857C78.9519 33.5485 77.9331 33.3026 77.1995 33.1659C77.0094 33.1249 76.2487 33.0293 76.2487 33.0293L76.0313 33.4255C75.8819 33.7124 75.6917 34.095 75.5831 34.3546C75.4065 34.8055 75.3114 34.9148 75.0669 35.3247C75.8004 35.4476 76.9007 35.7072 77.7701 36.1581C79.1964 36.9232 79.6582 37.1145 80.514 38.2485C81.3698 39.3825 82.1305 40.4346 82.3071 41.4866C82.4972 42.5387 82.4972 44.4378 82.1169 45.4898C81.9131 46.05 81.7094 46.4872 81.4784 46.8835C81.8995 46.5009 82.2527 46.1047 82.6874 45.6811C83.353 45.0116 83.7333 44.3422 84.1137 43.3038C84.4805 42.2654 84.4805 40.3663 84.2903 39.3142Z" fill="#E8993A"/>
<path d="M84.2907 39.3142C84.1005 38.2622 83.3398 37.2238 82.4976 36.0761C81.6418 34.9284 81.1664 34.7372 79.7537 33.9857C78.9523 33.5485 77.9335 33.3026 77.1999 33.1659C77.0098 33.1249 76.2491 33.0293 76.2491 33.0293L76.0317 33.4255C76.2627 33.4528 76.6838 33.5075 76.8196 33.5485C77.5531 33.6851 78.5719 33.931 79.3734 34.3683C80.7997 35.1334 81.2615 35.3247 82.1173 36.4587C82.9731 37.6064 83.7337 38.6447 83.9103 39.6968C84.1005 40.7488 84.1005 42.648 83.7202 43.7C83.3398 44.7521 82.9595 45.4079 82.2939 46.0774C82.1037 46.2686 81.9271 46.4463 81.7641 46.6239C82.0629 46.3233 82.3482 46.0227 82.6742 45.6948C83.3398 45.0253 83.7202 44.3558 84.1005 43.3174C84.4809 42.2654 84.4809 40.3663 84.2907 39.3142Z" fill="#FFDF85"/>
<g clip-path="url(#clip0_21_438)">
<path d="M25.2706 76.6186H22.6753V74.5642H29.9185V76.6186H27.3231V85.4815H25.2706V76.6186Z" fill="black"/>
<path d="M32.921 83.393H34.9905V77.1619H37.06V85.4644H30.8516V77.1619H32.921V83.393Z" fill="black"/>
<path d="M38.6206 74.5642H40.6901V77.1619H42.4542V79.2333H40.7071V85.4645H38.6206V74.5642Z" fill="black"/>
<path d="M50.0028 77.1619V85.4644H43.7773V77.1619H50.0028ZM45.8468 79.2333V83.393H47.9163V79.2333H45.8468Z" fill="black"/>
<path d="M53.6325 85.4644H51.563V77.1619H57.7884V80.3539H55.7189V79.2333H53.6494V85.4644H53.6325Z" fill="black"/>
<path d="M64.1327 82.5102L61.4016 78.2486V85.4645H59.3491V74.5642H61.2829L64.1327 78.8598L66.9825 74.5642H68.9162V85.4645H66.8637V78.2486L64.1327 82.5102Z" fill="black"/>
<path d="M70.2563 77.1619H73.3775V85.4645H71.3081V79.2333H70.2563V77.1619ZM73.3775 76.296H71.3081V74.5642H73.3775V76.296Z" fill="black"/>
<path d="M77.0075 85.4644H74.938V77.1619H81.1634V85.4644H79.0939V79.2333H77.0244V85.4644H77.0075Z" fill="black"/>
<path d="M88.9324 85.4645H82.707V77.1619H86.863V74.5642H88.9324V85.4645ZM84.7935 79.2333V83.3931H86.863V79.2333H84.7935Z" fill="black"/>
</g>
<defs>
<clipPath id="clip0_21_438">
<rect width="66.2573" height="10.9003" fill="white" transform="translate(22.6753 74.5642)"/>
</clipPath>
</defs>
</svg>
